<?xml version="1.0" encoding="UTF-8"?><svg id="Layer_2" xmlns="http://www.w3.org/2000/svg" viewBox="0 0 725.89 135"><defs><style>.cls-1{fill:#fff;}.cls-2{fill:#ff6700;}.cls-3{fill:#384650;}.cls-4{fill:none;stroke:#fff;stroke-miterlimit:10;stroke-width:2.52px;}</style></defs><g id="Layer_11"><g><g><path class="cls-3" d="M155.37,124.19V50.83c0-5.06-2.7-9.73-7.08-12.26L84.76,1.9c-4.38-2.53-9.78-2.53-14.16,0L7.08,38.57c-4.38,2.53-7.08,7.2-7.08,12.26V124.19c0,5.06,2.7,9.73,7.08,12.26l63.53,36.68c4.38,2.53,9.78,2.53,14.16,0l63.53-36.68c4.38-2.53,7.08-7.2,7.08-12.26Z"/><path class="cls-4" d="M142.24,117.99V57.03c0-4.2-2.24-8.09-5.88-10.19l-52.8-30.48c-3.64-2.1-8.12-2.1-11.76,0L19,46.84c-3.64,2.1-5.88,5.99-5.88,10.19v60.96c0,4.2,2.24,8.09,5.88,10.19l52.8,30.48c3.64,2.1,8.12,2.1,11.76,0l52.8-30.48c3.64-2.1,5.88-5.99,5.88-10.19Z"/></g><g><path class="cls-1" d="M67.3,64.74h0c11.46,0,20.76,9.3,20.76,20.76v48.39h0c-11.46,0-20.76-9.3-20.76-20.76v-48.39h0Z"/><path class="cls-2" d="M88.06,67.36v-4.86c0-11.46-9.29-20.76-20.76-20.76h0v14.12c8.74,0,16.42,4.6,20.76,11.5Z"/></g><g><path class="cls-1" d="M235.82,40.83l-14.48,74.69h-13.74l14.48-74.69h13.74Z"/><path class="cls-1" d="M245.89,81.96l-6.5,33.57h-13.53l6.71-34.72c1.47-7.83,4.35-13.38,8.66-16.63,4.3-3.25,10.61-4.88,18.94-4.88,14.55,0,21.82,5.74,21.82,17.2,0,1.82-.21,3.78-.63,5.88l-6.4,33.15h-13.53l6.5-33.57c.35-1.89,.52-3.22,.52-3.99,0-2.66-.73-4.56-2.2-5.72-1.47-1.15-3.71-1.73-6.71-1.73-4.55,0-7.75,.77-9.6,2.31-1.85,1.54-3.2,4.58-4.04,9.13Z"/><path class="cls-1" d="M298.24,81.96l-6.5,33.57h-13.53l6.71-34.72c1.47-7.83,4.35-13.38,8.65-16.63,4.3-3.25,10.61-4.88,18.94-4.88,14.55,0,21.82,5.74,21.82,17.2,0,1.82-.21,3.78-.63,5.88l-6.4,33.15h-13.53l6.5-33.57c.35-1.89,.52-3.22,.52-3.99,0-2.66-.73-4.56-2.2-5.72-1.47-1.15-3.71-1.73-6.71-1.73-4.55,0-7.75,.77-9.6,2.31-1.85,1.54-3.2,4.58-4.04,9.13Z"/><path class="cls-1" d="M364.64,59.3c7.55,0,13.22,1.57,16.99,4.72,3.78,3.15,5.67,8.25,5.67,15.32,0,2.8-.38,6.33-1.15,10.6-1.82,9.72-5,16.7-9.55,20.93-4.55,4.23-11.23,6.35-20.04,6.35-7.55,0-13.22-1.57-17-4.72-3.78-3.15-5.67-8.25-5.67-15.32,0-2.8,.38-6.33,1.15-10.6,1.82-9.65,5.02-16.61,9.6-20.88,4.58-4.27,11.24-6.4,19.99-6.4Zm-6.82,47c4.47,0,7.73-1.12,9.76-3.36,2.03-2.24,3.67-6.47,4.93-12.69,.84-4.27,1.26-7.69,1.26-10.28,0-3.64-.82-6.17-2.46-7.61-1.64-1.43-4.32-2.15-8.03-2.15-4.55,0-7.8,1.12-9.76,3.36-1.96,2.24-3.57,6.47-4.83,12.69-.84,4.34-1.26,7.76-1.26,10.28,0,3.64,.8,6.17,2.41,7.61,1.61,1.43,4.26,2.15,7.97,2.15Z"/><path class="cls-1" d="M401.05,60.97l5.04,40.91,20.67-40.91h13.95l-29.48,54.55h-14.9l-9.23-54.55h13.95Z"/><path class="cls-1" d="M451.82,80.38c7.06,0,12.13,1.5,15.21,4.51l.32-1.47c.42-2.1,.63-3.71,.63-4.83,0-2.38-.86-4.11-2.57-5.19-1.71-1.08-4.53-1.63-8.44-1.63-9.3,0-15.77,.07-19.41,.21l4.2-11.02c2.03-.14,7.48-.21,16.37-.21,7.62,0,13.22,1.36,16.79,4.09,3.57,2.73,5.35,6.82,5.35,12.27,0,1.19-.28,3.46-.84,6.82l-4.09,21.93c-.63,3.43-1.8,5.84-3.51,7.24-1.71,1.4-4.35,2.27-7.92,2.62-4.27,.49-8.88,.73-13.85,.73-7.2,0-12.54-1.15-16-3.46-3.46-2.31-5.19-5.94-5.19-10.91,0-2.38,.24-4.58,.73-6.61,2.24-10.07,9.65-15.11,22.24-15.11Zm1.57,9.55c-3.64,0-6.33,.56-8.08,1.68-1.75,1.12-2.9,3.15-3.46,6.08-.21,1.19-.32,2.17-.32,2.94,0,2.38,.8,3.97,2.41,4.77,1.61,.8,4.37,1.21,8.29,1.21,4.2,0,7.66-.17,10.39-.52l1.05-5.04c.35-1.47,.52-2.9,.52-4.3,0-2.45-.86-4.2-2.57-5.25-1.71-1.05-4.46-1.57-8.24-1.57Z"/><path class="cls-1" d="M493.47,99.37c0,1.68,.53,2.92,1.57,3.72,1.05,.81,2.8,1.21,5.25,1.21h11.54l-4.3,11.23h-10.49c-11.4,0-17.1-4.89-17.1-14.69,0-1.54,.24-3.71,.73-6.5l9.02-46.68,13.74-1.57-2.83,14.9h17.42l-4.2,11.23h-15.42l-4.51,23.08c-.28,1.4-.42,2.76-.42,4.09Z"/><path class="cls-1" d="M537.22,93.29h-12.38c-.14,1.26-.21,2.1-.21,2.52,0,3.36,.86,5.77,2.57,7.24,1.71,1.47,4.56,2.2,8.55,2.2,8.95,0,15.11-.14,18.46-.42l-3.99,10.39c-3.78,.35-9.27,.52-16.47,.52-14.76,0-22.14-6.47-22.14-19.41,0-3.15,.35-6.36,1.05-9.65,1.12-5.46,2.66-10.05,4.62-13.79,1.96-3.74,4.3-6.56,7.03-8.45,2.73-1.89,5.49-3.22,8.29-3.99,2.8-.77,5.98-1.15,9.55-1.15,6.85,0,11.96,1.28,15.32,3.83,3.36,2.55,5.04,6.14,5.04,10.75,0,1.61-.21,3.36-.63,5.25-1.12,5.04-3.58,8.65-7.4,10.86-3.81,2.2-9.56,3.3-17.26,3.3Zm3.99-23.71c-4.2,0-7.36,1-9.49,2.99-2.13,1.99-3.83,5.58-5.09,10.75h10.6c4.2,0,7.08-.38,8.65-1.15,1.57-.77,2.71-2.24,3.41-4.41,.35-1.05,.53-2.03,.53-2.94,0-3.5-2.87-5.25-8.6-5.25Z"/><path class="cls-2" d="M589.25,117.41c-9.37,0-16.38-2.08-21.03-6.24-4.65-4.16-6.98-10.86-6.98-20.09,0-4.27,.45-8.99,1.36-14.16,2.45-13.99,6.7-23.83,12.75-29.53,6.05-5.7,14.53-8.55,25.44-8.55,9.37,0,16.38,2.08,21.03,6.24,4.65,4.16,6.98,10.86,6.98,20.09,0,4.27-.46,8.99-1.36,14.16-2.45,13.99-6.7,23.83-12.75,29.53-6.05,5.7-14.53,8.55-25.44,8.55Zm10.49-66.72c-4.69,0-8.36,.68-11.01,2.05-2.66,1.36-4.91,3.95-6.77,7.76-1.85,3.81-3.48,9.46-4.88,16.94-1.05,5.32-1.57,10-1.57,14.06,0,5.46,1.17,9.16,3.51,11.12,2.34,1.96,6.1,2.94,11.28,2.94,4.68,0,8.36-.68,11.02-2.05,2.66-1.36,4.91-3.95,6.77-7.76,1.85-3.81,3.48-9.46,4.88-16.94,1.05-5.73,1.57-10.42,1.57-14.06,0-5.46-1.17-9.16-3.51-11.12-2.34-1.96-6.1-2.94-11.28-2.94Z"/><path class="cls-2" d="M632.26,133.88h-13.43l9.34-48.36c1.89-9.65,5.19-16.43,9.91-20.35,4.72-3.92,11.17-5.87,19.36-5.87,15.18,0,22.76,6.61,22.76,19.83,0,3.85-.46,7.73-1.36,11.65-2.03,9.3-5.21,16.03-9.55,20.19-4.34,4.16-10.21,6.24-17.62,6.24s-12.31-1.71-15.11-5.14l-4.3,21.82Zm18.88-27.59c4.12,0,7.24-1.07,9.34-3.2,2.1-2.13,3.74-6.35,4.93-12.64,.91-4.68,1.36-8.25,1.36-10.7,0-3.43-.75-5.87-2.26-7.34-1.5-1.47-4-2.2-7.5-2.2-4.48,0-7.82,1.05-10.02,3.15s-4,6.26-5.4,12.48c-.91,4.06-1.36,7.52-1.36,10.39,0,3.85,.87,6.49,2.62,7.92,1.75,1.43,4.51,2.15,8.29,2.15Z"/><path class="cls-2" d="M693.94,77.23c0,.98,.33,1.75,1,2.31,.66,.56,1.76,1.05,3.3,1.47l8.92,2.52c4.83,1.47,8.29,3.22,10.39,5.25,2.1,2.03,3.15,4.79,3.15,8.29,0,1.12-.17,2.8-.52,5.04-.84,4.62-3.27,8.04-7.29,10.28-4.02,2.24-9.91,3.36-17.68,3.36-10.63,0-17.62-.07-20.98-.21l3.99-11.12c3.85,.14,9.83,.21,17.94,.21,4.2,0,6.98-.21,8.34-.63,1.36-.42,2.26-1.5,2.67-3.25,.14-.7,.21-1.26,.21-1.68,0-2.17-1.64-3.67-4.93-4.51l-10.07-2.73c-7.48-2.17-11.23-6.5-11.23-13.01,0-1.47,.14-2.9,.42-4.3,.91-4.68,3.23-8.15,6.98-10.39,3.74-2.24,9.18-3.36,16.31-3.36,5.73,0,12.69,.14,20.88,.42l-4.09,11.02c-6.5-.21-12.59-.31-18.25-.31-3.08,0-5.21,.19-6.4,.58-1.19,.39-2.06,1.28-2.62,2.68-.28,.63-.42,1.33-.42,2.1Z"/></g></g></g></svg>