<?xml version="1.0" encoding="UTF-8"?><svg id="Layer_2" xmlns="http://www.w3.org/2000/svg" viewBox="0 0 725.89 180.82"><defs><style>.cls-1{fill:#fff;}.cls-2{fill:#ff6700;}.cls-3{fill:#384650;}.cls-4{fill:#627a8a;}.cls-5{fill:none;stroke:#fff;stroke-miterlimit:10;stroke-width:2.52px;}</style></defs><g id="logo_imgs"><g><g><path class="cls-3" d="M155.37,124.19V50.83c0-5.06-2.7-9.73-7.08-12.26L84.76,1.9c-4.38-2.53-9.78-2.53-14.16,0L7.08,38.57c-4.38,2.53-7.08,7.2-7.08,12.26V124.19c0,5.06,2.7,9.73,7.08,12.26l63.53,36.68c4.38,2.53,9.78,2.53,14.16,0l63.53-36.68c4.38-2.53,7.08-7.2,7.08-12.26Z"/><path class="cls-5" d="M142.24,117.99V57.03c0-4.2-2.24-8.09-5.88-10.19l-52.8-30.48c-3.64-2.1-8.12-2.1-11.76,0L19,46.84c-3.64,2.1-5.88,5.99-5.88,10.19v60.96c0,4.2,2.24,8.09,5.88,10.19l52.8,30.48c3.64,2.1,8.12,2.1,11.76,0l52.8-30.48c3.64-2.1,5.88-5.99,5.88-10.19Z"/></g><g><path class="cls-1" d="M67.3,64.74h0c11.46,0,20.76,9.3,20.76,20.76v48.39h0c-11.46,0-20.76-9.3-20.76-20.76v-48.39h0Z"/><path class="cls-2" d="M88.06,67.36v-4.86c0-11.46-9.29-20.76-20.76-20.76h0v14.12c8.74,0,16.42,4.6,20.76,11.5Z"/></g><g><path class="cls-3" d="M235.82,40.83l-14.48,74.69h-13.74l14.48-74.69h13.74Z"/><path class="cls-3" d="M245.89,81.96l-6.5,33.57h-13.53l6.71-34.72c1.47-7.83,4.35-13.38,8.65-16.63,4.3-3.25,10.61-4.88,18.94-4.88,14.55,0,21.82,5.74,21.82,17.2,0,1.82-.21,3.78-.63,5.88l-6.4,33.15h-13.53l6.5-33.57c.35-1.89,.52-3.22,.52-3.99,0-2.66-.73-4.56-2.2-5.72-1.47-1.15-3.71-1.73-6.71-1.73-4.55,0-7.75,.77-9.6,2.31-1.85,1.54-3.2,4.58-4.04,9.13Z"/><path class="cls-3" d="M298.24,81.96l-6.5,33.57h-13.53l6.71-34.72c1.47-7.83,4.35-13.38,8.65-16.63,4.3-3.25,10.61-4.88,18.94-4.88,14.55,0,21.82,5.74,21.82,17.2,0,1.82-.21,3.78-.63,5.88l-6.4,33.15h-13.53l6.5-33.57c.35-1.89,.52-3.22,.52-3.99,0-2.66-.73-4.56-2.2-5.72-1.47-1.15-3.71-1.73-6.71-1.73-4.55,0-7.75,.77-9.6,2.31-1.85,1.54-3.2,4.58-4.04,9.13Z"/><path class="cls-3" d="M364.64,59.3c7.55,0,13.22,1.57,16.99,4.72,3.78,3.15,5.67,8.25,5.67,15.32,0,2.8-.39,6.33-1.15,10.6-1.82,9.72-5,16.7-9.55,20.93-4.55,4.23-11.23,6.35-20.04,6.35-7.55,0-13.22-1.57-16.99-4.72-3.78-3.15-5.67-8.25-5.67-15.32,0-2.8,.38-6.33,1.15-10.6,1.82-9.65,5.02-16.61,9.6-20.88,4.58-4.27,11.24-6.4,19.98-6.4Zm-6.82,47c4.48,0,7.73-1.12,9.76-3.36,2.03-2.24,3.67-6.47,4.93-12.69,.84-4.27,1.26-7.69,1.26-10.28,0-3.64-.82-6.17-2.47-7.61-1.64-1.43-4.32-2.15-8.03-2.15-4.55,0-7.8,1.12-9.76,3.36-1.96,2.24-3.57,6.47-4.83,12.69-.84,4.34-1.26,7.76-1.26,10.28,0,3.64,.8,6.17,2.41,7.61,1.61,1.43,4.27,2.15,7.97,2.15Z"/><path class="cls-3" d="M401.05,60.97l5.04,40.91,20.67-40.91h13.95l-29.48,54.55h-14.9l-9.23-54.55h13.95Z"/><path class="cls-3" d="M451.82,80.38c7.06,0,12.13,1.5,15.21,4.51l.31-1.47c.42-2.1,.63-3.71,.63-4.83,0-2.38-.86-4.11-2.57-5.19-1.71-1.08-4.53-1.63-8.44-1.63-9.3,0-15.77,.07-19.41,.21l4.2-11.02c2.03-.14,7.48-.21,16.37-.21,7.62,0,13.22,1.36,16.79,4.09s5.35,6.82,5.35,12.27c0,1.19-.28,3.46-.84,6.82l-4.09,21.93c-.63,3.43-1.8,5.84-3.51,7.24-1.71,1.4-4.35,2.27-7.92,2.62-4.27,.49-8.88,.73-13.85,.73-7.2,0-12.54-1.15-16-3.46-3.46-2.31-5.19-5.94-5.19-10.91,0-2.38,.24-4.58,.73-6.61,2.24-10.07,9.65-15.11,22.24-15.11Zm1.57,9.55c-3.64,0-6.33,.56-8.08,1.68-1.75,1.12-2.9,3.15-3.46,6.08-.21,1.19-.31,2.17-.31,2.94,0,2.38,.8,3.97,2.41,4.77,1.61,.8,4.37,1.21,8.29,1.21,4.2,0,7.66-.17,10.39-.52l1.05-5.04c.35-1.47,.52-2.9,.52-4.3,0-2.45-.86-4.2-2.57-5.25-1.71-1.05-4.46-1.57-8.24-1.57Z"/><path class="cls-3" d="M493.47,99.37c0,1.68,.52,2.92,1.57,3.72,1.05,.81,2.8,1.21,5.25,1.21h11.54l-4.3,11.23h-10.49c-11.4,0-17.1-4.89-17.1-14.69,0-1.54,.24-3.71,.73-6.5l9.02-46.68,13.74-1.57-2.83,14.9h17.41l-4.2,11.23h-15.42l-4.51,23.08c-.28,1.4-.42,2.76-.42,4.09Z"/><path class="cls-3" d="M537.22,93.29h-12.38c-.14,1.26-.21,2.1-.21,2.52,0,3.36,.86,5.77,2.57,7.24,1.71,1.47,4.56,2.2,8.55,2.2,8.95,0,15.11-.14,18.46-.42l-3.99,10.39c-3.78,.35-9.27,.52-16.47,.52-14.76,0-22.14-6.47-22.14-19.41,0-3.15,.35-6.36,1.05-9.65,1.12-5.46,2.66-10.05,4.62-13.79,1.96-3.74,4.3-6.56,7.03-8.45,2.73-1.89,5.49-3.22,8.29-3.99,2.8-.77,5.98-1.15,9.55-1.15,6.85,0,11.96,1.28,15.32,3.83,3.36,2.55,5.04,6.14,5.04,10.75,0,1.61-.21,3.36-.63,5.25-1.12,5.04-3.58,8.65-7.4,10.86-3.81,2.2-9.56,3.3-17.26,3.3Zm3.99-23.71c-4.2,0-7.36,1-9.49,2.99-2.13,1.99-3.83,5.58-5.09,10.75h10.6c4.2,0,7.08-.38,8.65-1.15,1.57-.77,2.71-2.24,3.41-4.41,.35-1.05,.52-2.03,.52-2.94,0-3.5-2.87-5.25-8.6-5.25Z"/><path class="cls-2" d="M589.25,117.41c-9.37,0-16.38-2.08-21.03-6.24-4.65-4.16-6.98-10.86-6.98-20.09,0-4.27,.45-8.99,1.36-14.16,2.45-13.99,6.7-23.83,12.75-29.53,6.05-5.7,14.53-8.55,25.44-8.55,9.37,0,16.38,2.08,21.03,6.24,4.65,4.16,6.98,10.86,6.98,20.09,0,4.27-.46,8.99-1.36,14.16-2.45,13.99-6.7,23.83-12.75,29.53-6.05,5.7-14.53,8.55-25.44,8.55Zm10.49-66.72c-4.69,0-8.36,.68-11.02,2.05-2.66,1.36-4.91,3.95-6.77,7.76-1.85,3.81-3.48,9.46-4.88,16.94-1.05,5.32-1.57,10-1.57,14.06,0,5.46,1.17,9.16,3.51,11.12,2.34,1.96,6.1,2.94,11.28,2.94,4.68,0,8.36-.68,11.02-2.05,2.66-1.36,4.91-3.95,6.77-7.76,1.85-3.81,3.48-9.46,4.88-16.94,1.05-5.73,1.57-10.42,1.57-14.06,0-5.46-1.17-9.16-3.51-11.12-2.34-1.96-6.1-2.94-11.28-2.94Z"/><path class="cls-2" d="M632.26,133.88h-13.43l9.34-48.36c1.89-9.65,5.19-16.43,9.91-20.35,4.72-3.92,11.17-5.87,19.35-5.87,15.18,0,22.77,6.61,22.77,19.83,0,3.85-.46,7.73-1.36,11.65-2.03,9.3-5.21,16.03-9.55,20.19-4.34,4.16-10.21,6.24-17.62,6.24s-12.31-1.71-15.11-5.14l-4.3,21.82Zm18.88-27.59c4.13,0,7.24-1.07,9.34-3.2,2.1-2.13,3.74-6.35,4.93-12.64,.91-4.68,1.36-8.25,1.36-10.7,0-3.43-.75-5.87-2.26-7.34-1.5-1.47-4-2.2-7.5-2.2-4.48,0-7.82,1.05-10.02,3.15s-4,6.26-5.4,12.48c-.91,4.06-1.36,7.52-1.36,10.39,0,3.85,.87,6.49,2.62,7.92,1.75,1.43,4.51,2.15,8.29,2.15Z"/><path class="cls-2" d="M693.94,77.23c0,.98,.33,1.75,1,2.31,.66,.56,1.77,1.05,3.3,1.47l8.92,2.52c4.83,1.47,8.29,3.22,10.39,5.25,2.1,2.03,3.15,4.79,3.15,8.29,0,1.12-.18,2.8-.52,5.04-.84,4.62-3.27,8.04-7.29,10.28-4.02,2.24-9.91,3.36-17.68,3.36-10.63,0-17.62-.07-20.98-.21l3.99-11.12c3.85,.14,9.83,.21,17.94,.21,4.2,0,6.98-.21,8.34-.63,1.36-.42,2.26-1.5,2.67-3.25,.14-.7,.21-1.26,.21-1.68,0-2.17-1.64-3.67-4.93-4.51l-10.07-2.73c-7.48-2.17-11.23-6.5-11.23-13.01,0-1.47,.14-2.9,.42-4.3,.91-4.68,3.23-8.15,6.98-10.39,3.74-2.24,9.18-3.36,16.31-3.36,5.73,0,12.69,.14,20.88,.42l-4.09,11.02c-6.5-.21-12.59-.31-18.25-.31-3.08,0-5.21,.19-6.4,.58-1.19,.39-2.06,1.28-2.62,2.68-.28,.63-.42,1.33-.42,2.1Z"/></g><g><path class="cls-4" d="M207.63,157.11h3.29v17.6h-3.29v-17.6Z"/><path class="cls-4" d="M215.82,174.71h-3.21v-8.75c0-1.62,.47-2.77,1.4-3.46,.93-.69,2.43-1.04,4.49-1.04s3.55,.35,4.47,1.04c.92,.69,1.38,1.85,1.38,3.46v8.75h-3.21v-8.36c0-.84-.16-1.43-.47-1.76-.31-.33-1.04-.49-2.18-.49s-1.87,.16-2.19,.49c-.32,.33-.48,.92-.48,1.76v8.36Z"/><path class="cls-4" d="M228.95,174.71h-3.21v-8.75c0-1.62,.47-2.77,1.4-3.46,.93-.69,2.43-1.04,4.49-1.04s3.55,.35,4.47,1.04c.92,.69,1.38,1.85,1.38,3.46v8.75h-3.21v-8.36c0-.84-.16-1.43-.47-1.76-.31-.33-1.04-.49-2.18-.49s-1.87,.16-2.19,.49c-.32,.33-.48,.92-.48,1.76v8.36Z"/><path class="cls-4" d="M240,162.78c.92-.88,2.51-1.32,4.77-1.32s3.84,.44,4.76,1.32c.92,.88,1.37,2.49,1.37,4.83v1.33c0,2.34-.46,3.95-1.37,4.83-.92,.88-2.5,1.32-4.76,1.32s-3.85-.44-4.77-1.32c-.92-.88-1.38-2.49-1.38-4.83v-1.33c0-2.34,.46-3.95,1.38-4.83Zm7.64,6.24v-1.46c0-1.52-.18-2.48-.54-2.91s-1.14-.63-2.32-.63-1.99,.21-2.35,.63c-.36,.42-.54,1.39-.54,2.91v1.46c0,1.5,.18,2.46,.54,2.88,.36,.42,1.15,.63,2.35,.63s1.96-.21,2.32-.63c.36-.42,.54-1.38,.54-2.88Z"/><path class="cls-4" d="M250.78,161.85h3.46l3.12,9.57,3.21-9.57h3.26l-4.72,12.86h-3.58l-4.75-12.86Z"/><path class="cls-4" d="M274.84,166.2v6.18c0,.87-.19,1.48-.58,1.82-.39,.34-1.08,.51-2.06,.51h-4.03c-1.71,0-2.95-.32-3.71-.95-.76-.63-1.14-1.59-1.14-2.88v-.54c0-1.37,.4-2.36,1.2-2.98,.8-.62,2.06-.93,3.79-.93,1.57,0,2.7,.23,3.41,.69v-.44c0-.91-.2-1.51-.59-1.82-.4-.3-1.15-.46-2.28-.46-.41,0-1.14,0-2.18,.02-1.04,.02-1.77,.02-2.2,.02l.52-2.6c1.22-.03,2.56-.05,4.01-.05,2.01,0,3.49,.35,4.43,1.06,.94,.71,1.41,1.82,1.41,3.34Zm-6.25,6.18h3.14v-2c0-.63-.16-1.05-.48-1.29-.32-.23-1-.35-2.04-.35h-.37c-.92,0-1.55,.12-1.89,.35-.34,.23-.51,.65-.51,1.26v.47c0,.54,.16,.94,.47,1.19,.31,.25,.87,.37,1.68,.37Z"/><path class="cls-4" d="M283.91,172.06l-.52,2.65h-2c-2.06,0-3.44-.33-4.13-.99s-1.04-1.94-1.04-3.86v-11l3.21-.52v3.51h4.62l-.52,2.65h-4.1v5.19c0,.99,.14,1.63,.41,1.93,.27,.3,.86,.45,1.77,.45h2.3Z"/><path class="cls-4" d="M288.11,158.22c0,.64-.14,1.1-.43,1.36-.29,.26-.78,.4-1.47,.4s-1.18-.13-1.47-.4c-.29-.26-.43-.72-.43-1.36s.14-1.05,.43-1.34c.29-.28,.78-.42,1.47-.42s1.18,.14,1.47,.42c.29,.28,.43,.73,.43,1.34Zm-3.54,16.49v-12.86h3.21v12.86h-3.21Z"/><path class="cls-4" d="M292.39,174.71h-3.21v-8.75c0-1.62,.47-2.77,1.4-3.46,.93-.69,2.43-1.04,4.49-1.04s3.55,.35,4.47,1.04c.92,.69,1.38,1.85,1.38,3.46v8.75h-3.21v-8.36c0-.84-.16-1.43-.47-1.76-.31-.33-1.04-.49-2.18-.49s-1.87,.16-2.19,.49c-.32,.33-.48,.92-.48,1.76v8.36Z"/><path class="cls-4" d="M311.01,173.5v-.17c-.76,.59-1.86,.89-3.31,.89-2.06,0-3.51-.48-4.36-1.45-.85-.96-1.27-2.49-1.27-4.59v-.69c0-2.08,.43-3.6,1.3-4.57s2.46-1.46,4.78-1.46,3.92,.47,4.78,1.42c.87,.95,1.3,2.37,1.3,4.27v6.38c0,1.99-.47,3.42-1.41,4.28-.94,.86-2.51,1.29-4.72,1.29s-3.69-.02-4.75-.05l.52-2.57c.82,.03,2.18,.05,4.08,.05,1.15,0,1.95-.21,2.4-.63,.45-.42,.67-1.22,.67-2.39Zm-2.84-1.85c1.15,0,1.92-.19,2.29-.57,.37-.38,.56-1.14,.56-2.27v-1.21c0-1.5-.16-2.47-.48-2.9-.32-.44-1.11-.66-2.36-.66s-2.04,.22-2.36,.66c-.32,.44-.48,1.41-.48,2.9v.49c0,1.5,.16,2.47,.48,2.91,.32,.44,1.11,.66,2.36,.66Z"/><path class="cls-4" d="M321.1,179.04l.52-2.57c.82,.03,2.18,.05,4.08,.05,1.15,0,1.95-.21,2.4-.63s.67-1.22,.67-2.39v-.25c-.4,.33-.83,.57-1.31,.73-.48,.16-1.21,.23-2.2,.23-1.65,0-2.88-.33-3.7-.99-.82-.66-1.22-1.73-1.22-3.21v-8.16h3.21v7.52c0,.84,.14,1.43,.42,1.77s.94,.51,1.98,.51c1.15,0,1.91-.17,2.28-.52,.36-.35,.54-1.01,.54-1.98v-7.29h3.21v11.67c0,1.99-.47,3.42-1.41,4.28-.94,.86-2.51,1.29-4.72,1.29s-3.69-.02-4.75-.05Z"/><path class="cls-4" d="M334.5,162.78c.92-.88,2.51-1.32,4.77-1.32s3.84,.44,4.76,1.32c.92,.88,1.37,2.49,1.37,4.83v1.33c0,2.34-.46,3.95-1.37,4.83-.92,.88-2.5,1.32-4.76,1.32s-3.85-.44-4.77-1.32c-.92-.88-1.38-2.49-1.38-4.83v-1.33c0-2.34,.46-3.95,1.38-4.83Zm7.64,6.24v-1.46c0-1.52-.18-2.48-.54-2.91s-1.14-.63-2.32-.63-1.99,.21-2.35,.63c-.36,.42-.54,1.39-.54,2.91v1.46c0,1.5,.18,2.46,.54,2.88,.36,.42,1.15,.63,2.35,.63s1.96-.21,2.32-.63c.36-.42,.54-1.38,.54-2.88Z"/><path class="cls-4" d="M352.37,175.11c-2.04,0-3.53-.34-4.45-1.03-.92-.68-1.38-1.84-1.38-3.47v-8.75h3.21v8.33c0,.84,.16,1.43,.47,1.77,.31,.34,1.03,.51,2.15,.51s1.81-.17,2.13-.51c.31-.34,.47-.93,.47-1.77v-8.33h3.21v8.75c0,1.63-.46,2.79-1.38,3.47-.92,.68-2.4,1.03-4.43,1.03Z"/><path class="cls-4" d="M362.78,166.77v7.94h-3.21v-8.46c0-1.58,.44-2.72,1.31-3.41,.87-.69,2.17-1.04,3.88-1.04,1.37,0,2.34,0,2.92,.02l-.52,2.67c-.89-.03-1.58-.05-2.08-.05-.97,0-1.6,.17-1.88,.52s-.42,.95-.42,1.8Z"/><path class="cls-4" d="M377.47,164.03l3.21,.54c1.6,.3,2.72,.82,3.36,1.56,.64,.74,.96,1.85,.96,3.31v.4c0,1.71-.5,2.96-1.51,3.75-1,.78-2.76,1.17-5.27,1.17-2.72,0-4.78-.02-6.18-.05l.52-2.79c1.17,.03,3.07,.05,5.71,.05,1.37,0,2.28-.14,2.72-.43,.45-.29,.67-.86,.67-1.72,0-.76-.14-1.29-.41-1.59-.27-.31-.87-.53-1.79-.68l-2.99-.49c-1.7-.28-2.86-.79-3.47-1.52-.62-.73-.93-1.82-.93-3.25v-.44c0-1.57,.51-2.75,1.53-3.56,1.02-.81,2.7-1.21,5.02-1.21,2.64,0,4.59,.02,5.86,.05l-.52,2.79c-1.11-.03-2.94-.05-5.51-.05-1.22,0-2.04,.14-2.46,.43-.42,.29-.63,.83-.63,1.62,0,.69,.13,1.19,.4,1.48,.26,.3,.83,.51,1.71,.64Z"/><path class="cls-4" d="M387.19,162.78c.92-.88,2.51-1.32,4.77-1.32s3.84,.44,4.76,1.32c.92,.88,1.37,2.49,1.37,4.83v1.33c0,2.34-.46,3.95-1.37,4.83-.92,.88-2.5,1.32-4.76,1.32s-3.85-.44-4.77-1.32c-.92-.88-1.38-2.49-1.38-4.83v-1.33c0-2.34,.46-3.95,1.38-4.83Zm7.64,6.24v-1.46c0-1.52-.18-2.48-.54-2.91s-1.14-.63-2.32-.63-1.99,.21-2.35,.63c-.36,.42-.54,1.39-.54,2.91v1.46c0,1.5,.18,2.46,.54,2.88,.36,.42,1.15,.63,2.35,.63s1.96-.21,2.32-.63c.36-.42,.54-1.38,.54-2.88Z"/><path class="cls-4" d="M405.38,156.29c.69,0,1.38,.02,2.08,.05l-.52,2.65c-.89-.03-1.4-.05-1.53-.05-1.14,0-1.91,.19-2.31,.56-.4,.37-.62,1.16-.66,2.36h3.93l-.49,2.65h-3.44v10.21h-3.21v-12.46c0-2.21,.46-3.75,1.37-4.64,.92-.88,2.51-1.32,4.78-1.32Zm9.87,15.77l-.52,2.65h-2c-2.06,0-3.44-.33-4.13-.99s-1.04-1.94-1.04-3.86v-10.46l3.21-.52v2.97h4.62l-.52,2.65h-4.1v5.19c0,.99,.14,1.63,.41,1.93,.27,.3,.86,.45,1.77,.45h2.3Z"/><path class="cls-4" d="M426.08,161.85l2.32,9.54,2.35-9.54h3.07l-3.81,12.86h-3.21l-2.25-8.98-2.27,8.98h-3.26l-3.76-12.86h3.24l2.23,9.49,2.45-9.49h2.92Z"/><path class="cls-4" d="M444.8,166.2v6.18c0,.87-.19,1.48-.58,1.82-.39,.34-1.08,.51-2.06,.51h-4.03c-1.71,0-2.95-.32-3.71-.95-.76-.63-1.14-1.59-1.14-2.88v-.54c0-1.37,.4-2.36,1.2-2.98,.8-.62,2.06-.93,3.79-.93,1.57,0,2.7,.23,3.41,.69v-.44c0-.91-.2-1.51-.59-1.82-.4-.3-1.15-.46-2.28-.46-.41,0-1.14,0-2.18,.02-1.04,.02-1.77,.02-2.2,.02l.52-2.6c1.22-.03,2.56-.05,4.01-.05,2.01,0,3.49,.35,4.43,1.06,.94,.71,1.41,1.82,1.41,3.34Zm-6.25,6.18h3.14v-2c0-.63-.16-1.05-.48-1.29-.32-.23-1-.35-2.04-.35h-.37c-.92,0-1.55,.12-1.89,.35-.34,.23-.51,.65-.51,1.26v.47c0,.54,.16,.94,.47,1.19,.31,.25,.87,.37,1.68,.37Z"/><path class="cls-4" d="M449.39,166.77v7.94h-3.21v-8.46c0-1.58,.44-2.72,1.31-3.41,.87-.69,2.17-1.04,3.88-1.04,1.37,0,2.34,0,2.92,.02l-.52,2.67c-.89-.03-1.58-.05-2.08-.05-.97,0-1.6,.17-1.88,.52s-.42,.95-.42,1.8Z"/><path class="cls-4" d="M463.59,169.37h-6.43c0,1.2,.17,1.99,.52,2.36,.35,.37,1.1,.56,2.27,.56,2.18,0,3.75-.02,4.72-.05l-.49,2.47c-.81,.03-2.27,.05-4.38,.05s-3.74-.48-4.59-1.43c-.85-.96-1.27-2.41-1.27-4.38v-1.38c0-2.09,.43-3.63,1.3-4.62,.87-.99,2.42-1.48,4.66-1.48,2.04,0,3.49,.42,4.35,1.27,.86,.85,1.29,2.02,1.29,3.52v.42c0,1.1-.14,1.83-.41,2.18-.27,.35-.79,.52-1.54,.52Zm-3.76-5.49c-1.1,0-1.83,.21-2.16,.62s-.51,1.25-.51,2.52h5.32v-.57c0-.97-.19-1.64-.56-2.02-.37-.37-1.07-.56-2.09-.56Z"/><path class="cls-4" d="M471.57,174.71v-17.6h6.8c2.9,0,4.91,.61,6.02,1.84,1.11,1.23,1.67,3.2,1.67,5.92v2.05c0,2.69-.56,4.66-1.68,5.91-1.12,1.25-3.11,1.88-5.96,1.88h-6.85Zm3.29-14.76v11.92h3.36c1.68,0,2.84-.34,3.47-1.01,.63-.68,.95-2.03,.95-4.06v-1.81c0-2.03-.32-3.38-.95-4.04-.63-.67-1.79-1-3.47-1h-3.36Z"/><path class="cls-4" d="M496.69,169.37h-6.43c0,1.2,.17,1.99,.52,2.36,.35,.37,1.1,.56,2.27,.56,2.18,0,3.75-.02,4.72-.05l-.49,2.47c-.81,.03-2.27,.05-4.38,.05s-3.74-.48-4.59-1.43c-.85-.96-1.27-2.41-1.27-4.38v-1.38c0-2.09,.43-3.63,1.3-4.62,.87-.99,2.42-1.48,4.66-1.48,2.04,0,3.49,.42,4.35,1.27,.86,.85,1.29,2.02,1.29,3.52v.42c0,1.1-.14,1.83-.41,2.18-.27,.35-.79,.52-1.54,.52Zm-3.76-5.49c-1.1,0-1.83,.21-2.16,.62s-.51,1.25-.51,2.52h5.32v-.57c0-.97-.19-1.64-.56-2.02-.37-.37-1.07-.56-2.09-.56Z"/><path class="cls-4" d="M498.18,161.85h3.46l3.12,9.57,3.21-9.57h3.26l-4.72,12.86h-3.58l-4.75-12.86Z"/><path class="cls-4" d="M520.75,169.37h-6.43c0,1.2,.17,1.99,.52,2.36,.35,.37,1.1,.56,2.27,.56,2.18,0,3.75-.02,4.72-.05l-.49,2.47c-.81,.03-2.27,.05-4.38,.05s-3.74-.48-4.59-1.43c-.85-.96-1.27-2.41-1.27-4.38v-1.38c0-2.09,.43-3.63,1.3-4.62,.87-.99,2.42-1.48,4.66-1.48,2.04,0,3.49,.42,4.35,1.27,.86,.85,1.29,2.02,1.29,3.52v.42c0,1.1-.14,1.83-.41,2.18-.27,.35-.79,.52-1.54,.52Zm-3.76-5.49c-1.1,0-1.83,.21-2.16,.62s-.51,1.25-.51,2.52h5.32v-.57c0-.97-.19-1.64-.56-2.02-.37-.37-1.07-.56-2.09-.56Z"/><path class="cls-4" d="M523.72,174.71v-18.37h3.21v18.37h-3.21Z"/><path class="cls-4" d="M529.45,162.78c.92-.88,2.51-1.32,4.77-1.32s3.84,.44,4.76,1.32c.92,.88,1.37,2.49,1.37,4.83v1.33c0,2.34-.46,3.95-1.37,4.83-.92,.88-2.5,1.32-4.76,1.32s-3.85-.44-4.77-1.32c-.92-.88-1.38-2.49-1.38-4.83v-1.33c0-2.34,.46-3.95,1.38-4.83Zm7.64,6.24v-1.46c0-1.52-.18-2.48-.54-2.91s-1.14-.63-2.32-.63-1.99,.21-2.35,.63c-.36,.42-.54,1.39-.54,2.91v1.46c0,1.5,.18,2.46,.54,2.88,.36,.42,1.15,.63,2.35,.63s1.96-.21,2.32-.63c.36-.42,.54-1.38,.54-2.88Z"/><path class="cls-4" d="M553.66,167.71v1.16c0,2.27-.42,3.88-1.27,4.82-.85,.94-2.36,1.41-4.54,1.41-1.4,0-2.45-.3-3.14-.89v4.82h-3.21v-11.47c0-2.26,.47-3.84,1.41-4.75,.94-.91,2.52-1.36,4.75-1.36s3.74,.45,4.65,1.36c.91,.91,1.36,2.54,1.36,4.9Zm-6.11,4.82c1.2,0,1.98-.22,2.32-.66,.35-.44,.52-1.42,.52-2.95v-1.26c0-1.55-.18-2.54-.54-2.98-.36-.44-1.13-.66-2.3-.66s-1.94,.21-2.3,.64c-.36,.43-.54,1.39-.54,2.89v1.76c0,1.29,.19,2.14,.58,2.57,.39,.43,1.14,.64,2.26,.64Z"/><path class="cls-4" d="M558.01,174.71h-3.21v-8.8c0-1.6,.44-2.74,1.32-3.42s2.21-1.03,3.99-1.03,3.15,.48,3.96,1.43c.81-.96,2.14-1.43,4.01-1.43,1.76,0,3.09,.35,3.97,1.04,.88,.69,1.32,1.83,1.32,3.41v8.8h-3.21v-8.36c0-.84-.13-1.43-.4-1.76-.26-.33-.88-.49-1.85-.49-.89,0-1.48,.15-1.77,.46-.29,.31-.43,.81-.43,1.52v8.63h-3.21v-8.36c0-.84-.14-1.43-.41-1.76-.27-.33-.89-.49-1.84-.49s-1.57,.16-1.83,.49c-.26,.33-.4,.92-.4,1.76v8.36Z"/><path class="cls-4" d="M584.15,169.37h-6.43c0,1.2,.17,1.99,.52,2.36,.35,.37,1.1,.56,2.27,.56,2.18,0,3.75-.02,4.72-.05l-.49,2.47c-.81,.03-2.27,.05-4.38,.05s-3.74-.48-4.59-1.43c-.85-.96-1.27-2.41-1.27-4.38v-1.38c0-2.09,.43-3.63,1.3-4.62,.87-.99,2.42-1.48,4.66-1.48,2.04,0,3.49,.42,4.35,1.27,.86,.85,1.29,2.02,1.29,3.52v.42c0,1.1-.14,1.83-.41,2.18-.27,.35-.79,.52-1.54,.52Zm-3.76-5.49c-1.1,0-1.83,.21-2.16,.62s-.51,1.25-.51,2.52h5.32v-.57c0-.97-.19-1.64-.56-2.02-.37-.37-1.07-.56-2.09-.56Z"/><path class="cls-4" d="M590.33,174.71h-3.21v-8.75c0-1.62,.47-2.77,1.4-3.46,.93-.69,2.43-1.04,4.49-1.04s3.55,.35,4.47,1.04c.92,.69,1.38,1.85,1.38,3.46v8.75h-3.21v-8.36c0-.84-.16-1.43-.47-1.76-.31-.33-1.04-.49-2.18-.49s-1.87,.16-2.19,.49c-.32,.33-.48,.92-.48,1.76v8.36Z"/><path class="cls-4" d="M607.93,172.06l-.52,2.65h-2c-2.06,0-3.44-.33-4.13-.99s-1.04-1.94-1.04-3.86v-11l3.21-.52v3.51h4.62l-.52,2.65h-4.1v5.19c0,.99,.14,1.63,.41,1.93,.27,.3,.86,.45,1.77,.45h2.3Z"/><path class="cls-4" d="M620.91,175.15c-1.53,0-2.81-.16-3.82-.48s-1.81-.83-2.39-1.53c-.58-.7-.98-1.52-1.2-2.47s-.33-2.14-.33-3.57v-2.4c0-1.38,.11-2.55,.33-3.49s.61-1.77,1.17-2.48c.56-.72,1.35-1.24,2.37-1.58,1.02-.34,2.31-.51,3.86-.51s2.83,.16,3.84,.48c1.01,.32,1.8,.83,2.37,1.53,.57,.7,.97,1.52,1.2,2.47,.23,.95,.35,2.14,.35,3.57v2.4c0,1.38-.11,2.55-.33,3.49-.22,.94-.61,1.77-1.17,2.48-.56,.72-1.36,1.24-2.39,1.58-1.03,.34-2.32,.51-3.87,.51Zm0-2.79c1.24,0,2.15-.13,2.73-.4,.58-.26,1-.77,1.25-1.51s.37-1.89,.37-3.44v-2.25c0-1.53-.12-2.67-.37-3.41s-.66-1.25-1.25-1.52-1.5-.41-2.73-.41c-.94,0-1.67,.06-2.19,.19s-.95,.39-1.3,.79c-.35,.4-.57,.94-.68,1.59-.11,.66-.16,1.58-.16,2.77v2.25c0,2.24,.27,3.69,.82,4.35,.54,.66,1.71,.99,3.51,.99Z"/><path class="cls-4" d="M642.08,167.71v1.16c0,2.27-.42,3.88-1.27,4.82-.85,.94-2.36,1.41-4.54,1.41-1.4,0-2.45-.3-3.14-.89v4.82h-3.21v-11.47c0-2.26,.47-3.84,1.41-4.75,.94-.91,2.52-1.36,4.75-1.36s3.74,.45,4.65,1.36c.91,.91,1.36,2.54,1.36,4.9Zm-6.11,4.82c1.2,0,1.98-.22,2.32-.66,.35-.44,.52-1.42,.52-2.95v-1.26c0-1.55-.18-2.54-.54-2.98-.36-.44-1.13-.66-2.3-.66s-1.94,.21-2.3,.64c-.36,.43-.54,1.39-.54,2.89v1.76c0,1.29,.19,2.14,.58,2.57,.39,.43,1.14,.64,2.26,.64Z"/><path class="cls-4" d="M652.61,169.37h-6.43c0,1.2,.17,1.99,.52,2.36,.35,.37,1.1,.56,2.27,.56,2.18,0,3.75-.02,4.72-.05l-.49,2.47c-.81,.03-2.27,.05-4.38,.05s-3.74-.48-4.59-1.43c-.85-.96-1.27-2.41-1.27-4.38v-1.38c0-2.09,.43-3.63,1.3-4.62,.87-.99,2.42-1.48,4.66-1.48,2.04,0,3.49,.42,4.35,1.27,.86,.85,1.29,2.02,1.29,3.52v.42c0,1.1-.14,1.83-.41,2.18-.27,.35-.79,.52-1.54,.52Zm-3.76-5.49c-1.1,0-1.83,.21-2.16,.62s-.51,1.25-.51,2.52h5.32v-.57c0-.97-.19-1.64-.56-2.02-.37-.37-1.07-.56-2.09-.56Z"/><path class="cls-4" d="M658.79,166.77v7.94h-3.21v-8.46c0-1.58,.44-2.72,1.31-3.41,.87-.69,2.17-1.04,3.88-1.04,1.37,0,2.34,0,2.92,.02l-.52,2.67c-.89-.03-1.58-.05-2.08-.05-.97,0-1.6,.17-1.88,.52s-.42,.95-.42,1.8Z"/><path class="cls-4" d="M674.64,166.2v6.18c0,.87-.19,1.48-.58,1.82-.39,.34-1.08,.51-2.06,.51h-4.03c-1.71,0-2.95-.32-3.71-.95-.76-.63-1.14-1.59-1.14-2.88v-.54c0-1.37,.4-2.36,1.2-2.98,.8-.62,2.06-.93,3.79-.93,1.57,0,2.7,.23,3.41,.69v-.44c0-.91-.2-1.51-.59-1.82-.4-.3-1.15-.46-2.28-.46-.41,0-1.14,0-2.18,.02-1.04,.02-1.77,.02-2.2,.02l.52-2.6c1.22-.03,2.56-.05,4.01-.05,2.01,0,3.49,.35,4.43,1.06,.94,.71,1.41,1.82,1.41,3.34Zm-6.25,6.18h3.14v-2c0-.63-.16-1.05-.48-1.29-.32-.23-1-.35-2.04-.35h-.37c-.92,0-1.55,.12-1.89,.35-.34,.23-.51,.65-.51,1.26v.47c0,.54,.16,.94,.47,1.19,.31,.25,.87,.37,1.68,.37Z"/><path class="cls-4" d="M683.71,172.06l-.52,2.65h-2c-2.06,0-3.44-.33-4.13-.99s-1.04-1.94-1.04-3.86v-11l3.21-.52v3.51h4.62l-.52,2.65h-4.1v5.19c0,.99,.14,1.63,.41,1.93,.27,.3,.86,.45,1.77,.45h2.3Z"/><path class="cls-4" d="M687.92,158.22c0,.64-.14,1.1-.43,1.36-.29,.26-.78,.4-1.47,.4s-1.18-.13-1.47-.4c-.29-.26-.43-.72-.43-1.36s.14-1.05,.43-1.34c.29-.28,.78-.42,1.47-.42s1.18,.14,1.47,.42c.29,.28,.43,.73,.43,1.34Zm-3.54,16.49v-12.86h3.21v12.86h-3.21Z"/><path class="cls-4" d="M690.12,162.78c.92-.88,2.51-1.32,4.77-1.32s3.84,.44,4.76,1.32c.92,.88,1.37,2.49,1.37,4.83v1.33c0,2.34-.46,3.95-1.37,4.83-.92,.88-2.5,1.32-4.76,1.32s-3.85-.44-4.77-1.32c-.92-.88-1.38-2.49-1.38-4.83v-1.33c0-2.34,.46-3.95,1.38-4.83Zm7.64,6.24v-1.46c0-1.52-.18-2.48-.54-2.91s-1.14-.63-2.32-.63-1.99,.21-2.35,.63c-.36,.42-.54,1.39-.54,2.91v1.46c0,1.5,.18,2.46,.54,2.88,.36,.42,1.15,.63,2.35,.63s1.96-.21,2.32-.63c.36-.42,.54-1.38,.54-2.88Z"/><path class="cls-4" d="M705.37,174.71h-3.21v-8.75c0-1.62,.47-2.77,1.4-3.46,.93-.69,2.43-1.04,4.49-1.04s3.55,.35,4.47,1.04c.92,.69,1.38,1.85,1.38,3.46v8.75h-3.21v-8.36c0-.84-.16-1.43-.47-1.76-.31-.33-1.04-.49-2.18-.49s-1.87,.16-2.19,.49c-.32,.33-.48,.92-.48,1.76v8.36Z"/><path class="cls-4" d="M719.59,166.67l2.6,.25c2.47,.23,3.71,1.44,3.71,3.63v.37c0,2.56-1.8,3.83-5.39,3.83-2.88,0-4.76-.02-5.64-.05l.5-2.62c2.24,.03,4,.05,5.27,.05,.82,0,1.39-.09,1.69-.27,.3-.18,.46-.5,.46-.96,0-.38-.1-.66-.31-.85s-.62-.32-1.25-.38l-2.72-.22c-1.22-.1-2.12-.48-2.69-1.14-.58-.66-.87-1.47-.87-2.42v-.37c0-1.22,.42-2.14,1.25-2.77,.83-.63,2.16-.94,3.99-.94,.33,0,2.14,.02,5.44,.05l-.49,2.62c-1.3-.03-3.04-.05-5.22-.05-.72,0-1.23,.08-1.51,.23s-.42,.43-.42,.83,.1,.68,.31,.84c.21,.17,.64,.28,1.3,.35Z"/></g></g></g></svg>